<svg width="151" height="86" viewBox="0 0 151 86" fill="none" xmlns="http://www.w3.org/2000/svg">
<path fill-rule="evenodd" clip-rule="evenodd" d="M86.7249 85.9951L69.3638 85.9933L28.6111 35.2253L13.9449 16.3582H13.5842L13.9449 35.2253V86.0002H0V0.0146484H18.6681L86.7249 85.9951Z" fill="#C6D2CE"/>
<path fill-rule="evenodd" clip-rule="evenodd" d="M51.4558 0.00488281H118.542C127.518 0.00488281 134.41 1.96791 139.219 5.89336C144.028 9.81911 146.432 15.4273 146.432 22.7176C146.432 27.7648 145.23 31.891 142.825 35.0954C140.501 38.3001 137.175 40.3431 132.848 41.2242V41.5847C138.858 42.4662 143.387 44.7092 146.432 48.3144C149.478 51.9196 151 56.6466 151 62.4948C151 70.0258 148.476 75.834 143.427 79.9199C138.378 83.9259 131.007 85.9956 121.309 85.9956L119.43 85.9989L108.53 73.5508H119.263C125.274 73.5508 129.682 72.5494 132.487 70.5464C135.292 68.5437 136.695 65.379 136.695 61.0528C136.695 52.4805 130.884 48.1943 119.263 48.1943H89.513L80.2186 36.4173H115.777C126.757 36.4173 132.247 32.3314 132.247 24.1597C132.247 16.3085 126.757 12.3827 115.777 12.3827H61.2353L51.4558 0.00488281Z" fill="#C6D2CE"/>
<path fill-rule="evenodd" clip-rule="evenodd" d="M44.0513 0L112.198 85.9805L94.7022 85.9922L26.7473 0.0261376L26.7804 0L44.0513 0Z" fill="#C6D2CE"/>
</svg>
