<?xml version="1.0" encoding="UTF-8" standalone="no"?><!DOCTYPE svg PUBLIC "-//W3C//DTD SVG 1.1//EN" "http://www.w3.org/Graphics/SVG/1.1/DTD/svg11.dtd"><svg width="100%" height="100%" viewBox="0 0 503 287" version="1.1" xmlns="http://www.w3.org/2000/svg" xmlns:xlink="http://www.w3.org/1999/xlink" xml:space="preserve" xmlns:serif="http://www.serif.com/" style="fill-rule:evenodd;clip-rule:evenodd;stroke-linejoin:round;stroke-miterlimit:2;"><g><path d="M288.567,286.237l-57.767,-0.006l-135.6,-168.983l-48.8,-62.8l-1.2,-0l1.2,62.8l-0,169.006l-46.4,0l-0,-286.206l62.116,-0l226.451,286.189Z" style="fill:#2D3935;"/><path d="M171.213,0.016l223.222,0c29.867,0 52.8,6.534 68.8,19.6c16,13.067 24,31.734 24,56c0,16.8 -4,30.534 -12,41.2c-7.733,10.667 -18.8,17.467 -33.2,20.4l0,1.2c20,2.934 35.067,10.4 45.2,22.4c10.134,12 15.2,27.734 15.2,47.2c0,25.067 -8.4,44.4 -25.2,58c-16.8,13.334 -41.325,20.223 -73.592,20.223l-6.253,0.011l-36.27,-41.434l35.715,0c20,0 34.667,-3.333 44,-10c9.334,-6.666 14,-17.2 14,-31.6c0,-28.533 -19.333,-42.8 -58,-42.8l-98.991,0l-30.926,-39.2l118.317,0c36.534,0 54.8,-13.6 54.8,-40.8c0,-26.133 -18.266,-39.2 -54.8,-39.2l-181.482,0l-32.54,-41.2Z" style="fill:#2D3935;"/><path d="M146.576,0l226.75,286.189l-58.215,0.039l-226.112,-286.141l0.11,-0.087l57.467,0Z" style="fill:#2D3935;"/></g></svg>