<svg width="96" height="55" viewBox="0 0 96 55" fill="none" xmlns="http://www.w3.org/2000/svg">
<path fill-rule="evenodd" clip-rule="evenodd" d="M55.137 54.9967L44.0993 54.9956L18.19 22.5289L8.86572 10.4632H8.63644L8.86572 22.5289V55H0V0.0112915H11.8686L55.137 54.9967Z" fill="#ECE7DF"/>
<path fill-rule="evenodd" clip-rule="evenodd" d="M32.7129 0.00384521H75.3643C81.071 0.00384521 85.4528 1.25922 88.51 3.76959C91.5671 6.28015 93.0957 9.86663 93.0957 14.5289C93.0957 17.7566 92.3314 20.3953 90.8029 22.4446C89.3253 24.494 87.2107 25.8005 84.4593 26.364V26.5946C88.2807 27.1583 91.1596 28.5927 93.0957 30.8983C95.032 33.2039 96 36.2268 96 39.9668C96 44.7829 94.395 48.4974 91.185 51.1104C87.975 53.6722 83.289 54.9958 77.1237 54.9958L75.9289 54.9979L68.9987 47.0372H75.8228C79.6443 47.0372 82.4467 46.3968 84.23 45.1159C86.0135 43.8352 86.905 41.8113 86.905 39.0446C86.905 33.5626 83.211 30.8215 75.8228 30.8215H56.9085L50.9994 23.29H73.6064C80.587 23.29 84.0771 20.677 84.0771 15.4511C84.0771 10.4301 80.587 7.91959 73.6064 7.91959H38.9304L32.7129 0.00384521Z" fill="#ECE7DF"/>
<path fill-rule="evenodd" clip-rule="evenodd" d="M28.0055 0L71.331 54.9854L60.2077 54.9929L17.0042 0.0167153L17.0252 0L28.0055 0Z" fill="#ECE7DF"/>
</svg>
