<svg width="50" height="50" viewBox="0 0 50 50" fill="none" xmlns="http://www.w3.org/2000/svg">
<path fill-rule="evenodd" clip-rule="evenodd" d="M42.7153 7.26572C40.404 4.9533 37.6581 3.12088 34.6358 1.87394C31.6134 0.627 28.3743 -0.00982857 25.1049 0.000114664C11.3839 0.000114664 0.214285 11.1139 0.208705 24.7768C0.202635 29.1274 1.34943 33.4019 3.53236 37.1652L0 50L13.1975 46.5547C16.8506 48.5337 20.94 49.5695 25.0948 49.5681H25.1049C38.8247 49.5681 49.9932 38.4532 49.9999 24.7914C50.0082 21.5331 49.3684 18.3056 48.1178 15.2969C46.8672 12.2881 45.0308 9.55813 42.7153 7.26572ZM25.1049 45.3862H25.0959C21.3921 45.3873 17.7557 44.3961 14.5647 42.5156L13.8091 42.0692L5.97766 44.1139L8.06806 36.5145L7.57587 35.7333C5.50488 32.4545 4.40763 28.6549 4.41182 24.7768C4.41182 13.4231 13.6986 4.18537 25.1127 4.18537C30.5881 4.1756 35.8432 6.3411 39.7221 10.2056C43.601 14.0701 45.7861 19.317 45.7968 24.7925C45.7923 36.1474 36.51 45.3862 25.1049 45.3862ZM36.4542 29.9632C35.8325 29.6529 32.7711 28.1552 32.2042 27.9487C31.6372 27.7422 31.2187 27.6384 30.8046 28.259C30.3906 28.8795 29.1975 30.2679 28.8348 30.6864C28.472 31.105 28.1093 31.1507 27.4877 30.8404C26.866 30.5302 24.8604 29.8773 22.4843 27.7679C20.635 26.1262 19.3872 24.0994 19.0245 23.48C18.6618 22.8606 18.9854 22.5246 19.2968 22.2166C19.577 21.9387 19.9185 21.4934 20.2299 21.1318C20.5412 20.7702 20.645 20.5112 20.8515 20.0983C21.058 19.6853 20.9553 19.3237 20.8002 19.0146C20.645 18.7054 19.4006 15.6574 18.8828 14.4175C18.3772 13.2099 17.8649 13.374 17.4832 13.355C17.1205 13.3371 16.702 13.3327 16.2901 13.3327C15.9753 13.3409 15.6655 13.4139 15.3802 13.5471C15.0948 13.6804 14.84 13.8711 14.6317 14.1072C14.0614 14.7278 12.4542 16.2278 12.4542 19.2724C12.4542 22.317 14.6863 25.2634 14.9944 25.6764C15.3024 26.0893 19.3805 32.3427 25.6205 35.0246C26.7792 35.5208 27.9631 35.9559 29.1673 36.3282C30.6573 36.7991 32.0133 36.7333 33.0847 36.5737C34.2801 36.3962 36.7678 35.0759 37.2845 33.6295C37.8013 32.1831 37.8024 30.9442 37.6472 30.6864C37.4921 30.4286 37.0769 30.2724 36.4542 29.9632Z" fill="#59736A"/>
</svg>
