<svg width="151" height="86" viewBox="0 0 151 86" fill="none"
  xmlns="http://www.w3.org/2000/svg">
  <path fill-rule="evenodd" clip-rule="evenodd" d="M86.7249 85.9951L69.3638 85.9933L28.6111 35.2253L13.9449 16.3582H13.5842L13.9449 35.2253V86.0002H0V0.0146484H18.6681L86.7249 85.9951Z" fill="#f2f2f2"/>
  <path fill-rule="evenodd" clip-rule="evenodd" d="M51.4551 0.00488281H118.541C127.518 0.00488281 134.41 1.96791 139.218 5.89336C144.027 9.81911 146.431 15.4273 146.431 22.7176C146.431 27.7648 145.229 31.891 142.825 35.0954C140.501 38.3001 137.175 40.3431 132.847 41.2242V41.5847C138.858 42.4662 143.386 44.7092 146.431 48.3144C149.477 51.9196 150.999 56.6466 150.999 62.4948C150.999 70.0258 148.475 75.834 143.426 79.9199C138.377 83.9259 131.006 85.9956 121.309 85.9956L119.43 85.9989L108.529 73.5508H119.263C125.273 73.5508 129.681 72.5494 132.486 70.5464C135.292 68.5437 136.694 65.379 136.694 61.0528C136.694 52.4805 130.884 48.1943 119.263 48.1943H89.5123L80.2179 36.4173H115.776C126.756 36.4173 132.246 32.3314 132.246 24.1597C132.246 16.3085 126.756 12.3827 115.776 12.3827H61.2345L51.4551 0.00488281Z" fill="#f2f2f2"/>
  <path fill-rule="evenodd" clip-rule="evenodd" d="M44.052 0L112.199 85.9805L94.7029 85.9922L26.748 0.0261376L26.7811 0L44.052 0Z" fill="#f2f2f2"/>
</svg>
